<svg enable-background="new 0 0 48 48" height="180" viewBox="0 0 48 48" width="180" xmlns="http://www.w3.org/2000/svg"><path d="m22 23h4v20h-4z" fill="#8bc34a"/><path d="m29 43h-4c0-12.6 6.2-20 6.5-20.3l3 2.6c0 .1-5.5 6.7-5.5 17.7z" fill="#8bc34a"/><path d="m23 43h-4c0-11-5.5-17.6-5.5-17.7l3-2.6c.3.3 6.5 7.7 6.5 20.3z" fill="#8bc34a"/><path d="m37 20c0 3.9-3.1 7-7 7s-7-3.1-7-7 3.1-7 7-7 7 3.1 7 7z" fill="#558b2f"/><path d="m43 19c0 3.9-3.1 7-7 7s-7-3.1-7-7 3.1-7 7-7 7 3.1 7 7z" fill="#558b2f"/><path d="m19 19c0 3.9-3.1 7-7 7s-7-3.1-7-7 3.1-7 7-7 7 3.1 7 7z" fill="#558b2f"/><path d="m28 21c0 4.4-3.6 8-8 8s-8-3.6-8-8 3.6-8 8-8 8 3.6 8 8z" fill="#558b2f"/><path d="m25 12c0 3.9-3.1 7-7 7s-7-3.1-7-7 3.1-7 7-7 7 3.1 7 7z" fill="#558b2f"/><path d="m36 13c0 3.9-3.1 7-7 7s-7-3.1-7-7 3.1-7 7-7 7 3.1 7 7z" fill="#558b2f"/><path d="m22 34.5c-1.8-7.3-5.3-11.5-5.5-11.8l-.5-.7c5 9 6 20 6 20z" fill="#689f38"/><path d="m26 34.5c1.8-7.3 5.3-11.5 5.5-11.8l.5-.7c-5 9-6 20-6 20z" fill="#689f38"/><path d="m28 21c0 4.4-3.6 8-8 8s-8-3.6-8-8 3.6-8 8-8 8 3.6 8 8z" fill="#689f38"/><path d="m12.9 25.9c-1.2-1.5-1.9-3.5-1.9-5.9 0-3.3 1.6-5.8 4-7.3-.9-.4-1.9-.7-3-.7-3.9 0-7 3.1-7 7s3.1 7 7 7c.3 0 .7 0 1-.1z" fill="#689f38"/><path d="m36 12c-.7 0-1.3.1-1.9.3 2.4 1.3 3.9 3.7 3.9 6.7 0 3.2-1.2 5.5-3.4 6.9-.2 0-.4-.1-.5-.1.6.2 1.3.3 2 .3 3.9 0 7-3.1 7-7s-3.2-7.1-7.1-7.1z" fill="#689f38"/><path d="m30 13c-1.5 0-3.7 1-3.4.9 1.5 1.5 2.4 3.6 2.4 6.1 0 2.6-.8 4.7-2.1 6.2.9.5 2 .8 3.1.8 3.9 0 7-3.1 7-7s-3.1-7-7-7z" fill="#689f38"/><g fill="#33691e"><path d="m16 11c0 .6-.4 1-1 1s-1-.4-1-1 .4-1 1-1 1 .4 1 1z"/><path d="m18 8c0 .6-.4 1-1 1s-1-.4-1-1 .4-1 1-1 1 .4 1 1z"/><path d="m20 11c0 .6-.4 1-1 1s-1-.4-1-1 .4-1 1-1 1 .4 1 1z"/><path d="m32 9c0 .6-.4 1-1 1s-1-.4-1-1 .4-1 1-1 1 .4 1 1z"/><path d="m34 23c0 .6-.4 1-1 1s-1-.4-1-1 .4-1 1-1 1 .4 1 1z"/><path d="m36 20c0 .6-.4 1-1 1s-1-.4-1-1 .4-1 1-1 1 .4 1 1z"/><path d="m32 20c0 .6-.4 1-1 1s-1-.4-1-1 .4-1 1-1 1 .4 1 1z"/><path d="m39 15c0 .6-.4 1-1 1s-1-.4-1-1 .4-1 1-1 1 .4 1 1z"/><path d="m41 18c0 .6-.4 1-1 1s-1-.4-1-1 .4-1 1-1 1 .4 1 1z"/><path d="m18 18c0 .6-.4 1-1 1s-1-.4-1-1 .4-1 1-1 1 .4 1 1z"/><path d="m16 21c0 .6-.4 1-1 1s-1-.4-1-1 .4-1 1-1 1 .4 1 1z"/><path d="m20 21c0 .6-.4 1-1 1s-1-.4-1-1 .4-1 1-1 1 .4 1 1z"/><path d="m18 24c0 .6-.4 1-1 1s-1-.4-1-1 .4-1 1-1 1 .4 1 1z"/><path d="m24.6 14.4c.2.2.4.3.6.5.5-1.1.8-2.4.8-3.9s-.3-2.8-.8-3.9c-.5.3-.9.7-1.3 1.1.7 1.1 1.1 2.4 1.1 3.8 0 .9-.2 1.7-.4 2.4z"/></g></svg>